<svg xmlns="http://www.w3.org/2000/svg" viewBox="0 0 48 48">
  <rect width="48" height="48" rx="12" fill="#102036"/>
  <path d="M23.5 40.5c.9-7.9.7-14.5-.7-19.8" fill="none" stroke="#f7c873" stroke-linecap="round" stroke-width="4"/>
  <path d="M24 19c-4.9-4-9.9-4.8-15-2.5 2.7-5.6 7.6-8.3 15-8.2" fill="none" stroke="#45d0a1" stroke-linecap="round" stroke-linejoin="round" stroke-width="3.4"/>
  <path d="M24 19c4.9-4 9.9-4.8 15-2.5-2.7-5.6-7.6-8.3-15-8.2" fill="none" stroke="#45d0a1" stroke-linecap="round" stroke-linejoin="round" stroke-width="3.4"/>
  <path d="M24 19c-3.9.2-7.2 2.3-9.8 6.4 4.8.1 8-2 9.8-6.4Zm0 0c3.9.2 7.2 2.3 9.8 6.4-4.8.1-8-2-9.8-6.4Z" fill="none" stroke="#45d0a1" stroke-linecap="round" stroke-linejoin="round" stroke-width="3.2"/>
  <path d="M13 41h22" fill="none" stroke="#f7c873" stroke-linecap="round" stroke-width="4"/>
</svg>
